<?xml version="1.0" encoding="UTF-8"?><svg id="Layer_2" xmlns="http://www.w3.org/2000/svg" xmlns:xlink="http://www.w3.org/1999/xlink" viewBox="0 0 1501.16 323.91"><defs><style>.cls-1{fill:url(#linear-gradient-2);}.cls-2{fill:#181e51;}.cls-3{fill:url(#linear-gradient);}</style><linearGradient id="linear-gradient" x1="459.69" y1="435.85" x2="227.65" y2="175.51" gradientUnits="userSpaceOnUse"><stop offset="0" stop-color="#7b5aff"/><stop offset="1" stop-color="#ae00d0"/></linearGradient><linearGradient id="linear-gradient-2" x1="489.49" y1="381.41" x2="282.82" y2="149.54" gradientUnits="userSpaceOnUse"><stop offset="0" stop-color="#7b2aff"/><stop offset="1" stop-color="#ae00d0"/></linearGradient></defs><g id="Layer_1-2"><path class="cls-2" d="M856.56,92.08c0,52.56-19.56,77.41-63.97,83.53,42.37,4.48,63.97,23.22,63.97,63.97v78.23h-89.64v-73.34c0-35.04-4.48-38.71-48.89-38.71h-63.56v112.05h-85.56V0h181.72c84.75,0,105.94,18.33,105.94,92.08ZM728.62,140.56c38.3,0,42.37-3.66,42.37-36.26s-4.08-35.04-42.37-35.04h-74.16v71.3h74.16Z"/><path class="cls-2" d="M1030.14,322.69c-112.86,0-140.98-26.89-140.98-135.27V0h85.56v187.42c0,59.49,5.7,66,55.41,66s55.41-6.52,55.41-66V0h85.57v187.42c0,108.38-28.12,135.27-140.98,135.27Z"/><path class="cls-2" d="M1207.8,0h85.56v118.97h122.24V0h85.56v317.8h-85.56v-125.49h-122.24v125.49h-85.56V0Z"/><path class="cls-3" d="M325.68,137.86l-129.53,5.97c-14.44.67-22,17.45-12.93,28.71l53.8,66.78c5.34,6.62,5.19,16.11-.35,22.57l-47.22,55.03c-3.33,3.88-8.19,6.13-13.3,6.16l-158.37.84c-15.1.08-23.32-17.61-13.53-29.1l57.02-66.93,26.37-31.01L249.73,6.22c3.35-3.95,8.27-6.22,13.45-6.22h150.26c15.11,0,23.24,17.75,13.36,29.19l-88.58,102.57c-3.17,3.67-7.71,5.87-12.55,6.1Z"/><path class="cls-1" d="M241.85,162h145.38c5.11,0,9.97,2.22,13.33,6.08l93.4,107.52,14.67,18.58c9.13,11.56.92,28.56-13.82,28.6-4.08,0-8.11.01-11.84.01l-139.75-.71c-5.28-.03-10.27-2.42-13.61-6.52l-101.46-124.77c-9.38-11.54-1.17-28.79,13.7-28.79Z"/></g></svg>